<svg xmlns="http://www.w3.org/2000/svg" version="1.1" xmlns:xlink="http://www.w3.org/1999/xlink" width="1000" height="1000"><g clip-path="url(#SvgjsClipPath1028)"><rect width="1000" height="1000" fill="#ffffff"></rect><g transform="matrix(33.333333333333336,0,0,33.333333333333336,100,100)"><svg xmlns="http://www.w3.org/2000/svg" version="1.1" xmlns:xlink="http://www.w3.org/1999/xlink" width="24" height="24"><svg xmlns="http://www.w3.org/2000/svg" width="24" height="24" viewBox="0 0 24 24" class="icon icon-tabler icons-tabler-filled icon-tabler-sun-high">
  <defs>
    <filter id="shadow-blur" x="-20%" y="-20%" width="140%" height="140%">
      <feGaussianBlur in="SourceGraphic" stdDeviation="1"></feGaussianBlur>
    </filter>
  <clipPath id="SvgjsClipPath1028"><rect width="1000" height="1000" x="0" y="0" rx="500" ry="500"></rect></clipPath></defs>
  <path stroke="none" d="M0 0h24v24H0z" fill="none"></path>
  <path fill="oklch(66.7% 0.295 322.15)" filter="url(#shadow-blur)" d="M12 19a1 1 0 0 1 1 1v2a1 1 0 0 1 -2 0v-2a1 1 0 0 1 1 -1m-4.95 -2.05a1 1 0 0 1 0 1.414l-1.414 1.414a1 1 0 1 1 -1.414 -1.414l1.414 -1.414a1 1 0 0 1 1.414 0m11.314 0l1.414 1.414a1 1 0 0 1 -1.414 1.414l-1.414 -1.414a1 1 0 0 1 1.414 -1.414m-5.049 -9.836a5 5 0 1 1 -2.532 9.674a5 5 0 0 1 2.532 -9.674m-9.315 3.886a1 1 0 0 1 0 2h-2a1 1 0 0 1 0 -2zm18 0a1 1 0 0 1 0 2h-2a1 1 0 0 1 0 -2zm-16.364 -6.778l1.414 1.414a1 1 0 0 1 -1.414 1.414l-1.414 -1.414a1 1 0 0 1 1.414 -1.414m14.142 0a1 1 0 0 1 0 1.414l-1.414 1.414a1 1 0 0 1 -1.414 -1.414l1.414 -1.414a1 1 0 0 1 1.414 0m-7.778 -3.222a1 1 0 0 1 1 1v2a1 1 0 0 1 -2 0v-2a1 1 0 0 1 1 -1"></path>
  <path fill="currentColor" d="M12 19a1 1 0 0 1 1 1v2a1 1 0 0 1 -2 0v-2a1 1 0 0 1 1 -1m-4.95 -2.05a1 1 0 0 1 0 1.414l-1.414 1.414a1 1 0 1 1 -1.414 -1.414l1.414 -1.414a1 1 0 0 1 1.414 0m11.314 0l1.414 1.414a1 1 0 0 1 -1.414 1.414l-1.414 -1.414a1 1 0 0 1 1.414 -1.414m-5.049 -9.836a5 5 0 1 1 -2.532 9.674a5 5 0 0 1 2.532 -9.674m-9.315 3.886a1 1 0 0 1 0 2h-2a1 1 0 0 1 0 -2zm18 0a1 1 0 0 1 0 2h-2a1 1 0 0 1 0 -2zm-16.364 -6.778l1.414 1.414a1 1 0 0 1 -1.414 1.414l-1.414 -1.414a1 1 0 0 1 1.414 -1.414m14.142 0a1 1 0 0 1 0 1.414l-1.414 1.414a1 1 0 0 1 -1.414 -1.414l1.414 -1.414a1 1 0 0 1 1.414 0m-7.778 -3.222a1 1 0 0 1 1 1v2a1 1 0 0 1 -2 0v-2a1 1 0 0 1 1 -1"></path>
</svg></svg></g></g></svg>